<?xml version="1.0" encoding="UTF-8"?>
<svg id="Layer_2" data-name="Layer 2" xmlns="http://www.w3.org/2000/svg" viewBox="0 0 378.55 504.24">
  <defs>
    <style>
      .cls-1 {
        fill: #fff;
        stroke-width: 0px;
      }
    </style>
  </defs>
  <g id="Layer_1-2" data-name="Layer 1">
    <path class="cls-1" d="M378.55,377.56v126.68H0V0h378.55v377.56M371.56,272.06V7H7v490.24h364.56v-225.18Z"/>
    <path class="cls-1" d="M361.09,212.56c0,45.8,0,91.1,0,136.72H17.16V17.56h343.93c0,64.97,0,129.74,0,195M271.7,236.15c12.88-20.7,23.47-42.26,29.52-66.19,5.24-20.74,10.12-41.22,9.56-62.85-.52-20.15-9.14-35.77-23.94-48.59-.58-.5-1.51-.6-2.29-.84-5.96-1.78-11.93-3.54-16.99-5.05-.96-2-1.41-4.59-2.42-4.83-9.12-2.14-17.79-.36-26.03,3.89-3.47,1.79-6.87,3.7-10.41,5.34-4.05,1.87-8.17,3.59-12.32,5.22-7.64,3.02-13.26,8.61-18.97,14.23-3.66,3.61-8.07,6.46-11.84,9.98-6.05,5.65-5.91,10.25.08,15.56.87.77,1.78,1.51,2.61,2.33,3.43,3.38,6.7,3.62,10.38.12,5.65-5.37,10.86-11.68,17.48-15.44,14.3-8.11,28.71-16.79,46.71-15.95-3.03,2.96-.37,3.69,1.83,4.17,8.16,1.79,11.56,7.39,13.22,15.04,3.86,17.72,2.22,35.08-2.7,52.31-10,34.98-28.37,65.19-53.03,91.61-10.22,10.95-21.25,21.31-35.23,27.51-9.39,4.16-18.98,4.09-27.47-2.23-6.34-4.72-9.95-20.15-7.2-28.38,3.63,4.14,7.1,8.14,10.62,12.09,5.06,5.68,8.52,6.65,16.08,4.6-.74-1.38-1.47-2.76-2.58-4.83,3.11,1.02,5.49,1.8,8,2.63,1.51-2.84,3.02-5.08,3.94-7.54,3.04-8.11.24-17.32-6.39-19.01-4.57-1.16-7.42-2.31-5.68-7.67-4.91-.63-7.81-2.27-5.65-7.6.38-.95-.23-2.65-.91-3.63-5.94-8.57-12-17.07-18.03-25.58-.38-.54-.9-1-1.18-1.58-3.36-6.8-8.41-9.65-15.84-8.72.38-1.37.74-2.65,1.04-3.74-4.64-2.94-8.36-1.92-11.85,1.54-20.68,20.51-43.3,39.38-54.7,67.51-1.86,4.6,1.82,7.86.85,11.87-.05.2.68.75,1.13.88,3.65,1.03,7.31,2.01,10.98,2.98,1.35.35,3.38.14,4,.98,3.79,5.22,8.56,2.94,13.16,2.08,1.19-.22,2.33-.76,3.78-1.25.3,1.7.56,2.81.69,3.94,1.92,16.43,7.93,31.17,20.26,42.32,8.22,7.43,17.75,13.41,26.77,19.95,1.02.74,2.48.98,3.77,1.24,17.11,3.51,33,.42,46.82-10.22,11.11-8.56,23.46-15.62,32.84-26.38.85-.97,2.38-1.41,3.65-1.95,1.42-.6,3.29-.63,4.31-1.6,12.09-11.47,20.67-25.56,29.59-40.29Z"/>
    <path class="cls-1" d="M97.63,487.19c-26.97,0-53.45,0-80.35,0v-134.32h343.47v134.32c-87.76,0-175.19,0-263.12,0M134.45,417.19c.38,8.35.77,16.69,1.16,25.25h10.99v-43.34c-8.25-2.76-13.46.1-15.88,8.33-6.56-10.06-6.99-10.26-16.74-8.38v43.32h11.71v-26.76c2.02,3.03,3.26,4.88,4.75,7.12,1.27-1.96,2.33-3.6,4.02-5.53M176.61,408.5c-1.65-6.36-5.79-10.05-12.05-10.75-5.37-.6-11.66,2.66-13.81,7.14-2.49,5.19-1.3,11.45,3.4,15.95,2.5,2.4,5.59,4.18,8.13,6.54,1.18,1.1,1.71,2.91,2.45,4.45.05.11-.65.58-1.01.88-1.02-1.25-2.04-2.49-3.13-3.81h-10.45c-.68,7.31,2.07,11.75,8.26,13.76,6.62,2.15,13.6,0,16.8-5.18,3.12-5.05,2.1-12.04-2.64-16.35-2.7-2.45-5.82-4.43-8.53-6.87-1.12-1.01-1.74-2.63-2.38-4.07-.15-.34.43-1.3.89-1.52.43-.2,1.62.1,1.67.35,1.33,6.26,6.29,3.05,9.67,3.52.76.1,1.83-2.07,2.72-4.05M255.6,420.12c-.1-1.44-.21-2.87-.31-4.3-2.69-.22-4.93-.41-7.14-.59v-6.82h13.08v-9.67h-25.05v43.58h11.92v-16.3c2.61-.19,4.73-.35,7.23-.54.09-1.54.18-2.99.27-5.35M262.85,403.08c.09,1.75.18,3.49.27,5.3,3.07.14,5.52.26,8.62.4v33.62h11.93v-33.64c3.08-.16,5.67-.29,8.46-.43v-9.93c-9.13,0-17.92-.11-26.69.16-.9.03-1.73,2.35-2.59,4.5M97.64,408.1v-9.27h-11.62v43.55h25.07v-9.96h-13.45v-24.32M192.37,407.1v35.37h25.25v-10.02h-13.41v-33.66h-11.84c0,2.7,0,5.02,0,8.32M232.63,427.06v-28.25h-11.66v43.52h11.66c0-5.02,0-9.65,0-15.27Z"/>
    <path class="cls-1" d="M251.23,50.17c2.1.39,3.86.91,5.62,1.43-.09.64-.18,1.29-.27,1.93-3.12.5-6.23.99-9.35,1.49-.24-.62-.48-1.24-.72-1.85,1.45-.96,2.91-1.91,4.71-3Z"/>
  </g>
</svg>