<?xml version="1.0" encoding="UTF-8"?>
<svg id="Layer_2" data-name="Layer 2" xmlns="http://www.w3.org/2000/svg" viewBox="0 0 242.26 271.06">
  <defs>
    <style>
      .cls-1 {
        fill: #aa99c0;
        stroke-width: 0px;
      }
    </style>
  </defs>
  <g id="Layer_1-2" data-name="Layer 1">
    <path class="cls-1" d="M202.95,189.56c-8.74,14.41-17.33,28.5-29.42,39.97-1.02.97-2.89,1-4.31,1.6-1.27.54-2.8.97-3.65,1.95-9.37,10.75-21.73,17.82-32.84,26.38-13.82,10.64-29.71,13.73-46.82,10.22-1.3-.27-2.75-.5-3.77-1.24-9.02-6.53-18.55-12.52-26.77-19.95-12.33-11.15-18.34-25.89-20.26-42.32-.13-1.13-.39-2.24-.69-3.94-1.45.49-2.59,1.03-3.78,1.25-4.59.86-9.37,3.14-13.16-2.08-.61-.85-2.64-.63-4-.98-3.67-.96-7.33-1.95-10.98-2.98-.44-.13-1.18-.68-1.13-.88.97-4.01-2.71-7.27-.85-11.87,11.39-28.14,34.01-47.01,54.7-67.51,3.49-3.46,7.21-4.47,11.85-1.54-.3,1.09-.66,2.37-1.04,3.74,7.44-.93,12.49,1.92,15.84,8.72.29.58.8,1.04,1.18,1.58,6.03,8.51,12.09,17,18.03,25.58.68.99,1.29,2.68.91,3.63-2.16,5.33.75,6.97,5.65,7.6-1.74,5.37,1.11,6.51,5.68,7.67,6.64,1.69,9.43,10.9,6.39,19.01-.92,2.46-2.44,4.7-3.94,7.54-2.51-.83-4.89-1.61-8-2.63,1.1,2.07,1.84,3.44,2.58,4.83-7.56,2.05-11.01,1.08-16.08-4.6-3.52-3.95-6.99-7.95-10.62-12.09-2.75,8.23.86,23.66,7.2,28.38,8.49,6.32,18.08,6.39,27.47,2.23,13.98-6.2,25.01-16.55,35.23-27.51,24.66-26.42,43.03-56.63,53.03-91.61,4.93-17.22,6.57-34.58,2.7-52.31-1.67-7.64-5.06-13.25-13.22-15.04-2.2-.48-4.86-1.22-1.83-4.17-18-.84-32.41,7.83-46.71,15.95-6.62,3.76-11.83,10.07-17.48,15.44-3.68,3.5-6.95,3.25-10.38-.12-.83-.82-1.74-1.55-2.61-2.33-5.98-5.32-6.12-9.91-.08-15.56,3.77-3.52,8.17-6.37,11.84-9.98,5.71-5.62,11.33-11.21,18.97-14.23,4.15-1.64,8.28-3.35,12.32-5.22,3.53-1.64,6.94-3.55,10.41-5.34,8.24-4.24,16.91-6.03,26.03-3.89,1.01.24,1.47,2.82,2.42,4.83,5.07,1.5,11.03,3.27,16.99,5.05.78.23,1.72.34,2.29.84,14.8,12.82,23.42,28.43,23.94,48.59.56,21.63-4.32,42.1-9.56,62.85-6.05,23.94-16.63,45.49-29.7,66.51M182.32,3.4c-1.45.96-2.91,1.91-4.36,2.87.24.62.48,1.24.72,1.85,3.12-.5,6.23-.99,9.35-1.49.09-.64.18-1.29.27-1.93-1.76-.52-3.52-1.04-5.97-1.3Z"/>
  </g>
</svg>